<svg width="25" height="25" viewBox="0 0 25 25" fill="none" xmlns="http://www.w3.org/2000/svg">
<path d="M21.9101 21.1648L17.2161 16.4716C18.5766 14.8382 19.255 12.7432 19.1102 10.6223C18.9654 8.50145 18.0085 6.51806 16.4386 5.08473C14.8687 3.6514 12.8067 2.87849 10.6814 2.92679C8.55615 2.97509 6.53133 3.84088 5.02816 5.34405C3.52499 6.84722 2.6592 8.87204 2.6109 10.9973C2.5626 13.1225 3.33551 15.1846 4.76884 16.7545C6.20216 18.3244 8.18556 19.2813 10.3064 19.4261C12.4273 19.5709 14.5223 18.8925 16.1557 17.5319L20.8489 22.226C20.9185 22.2957 21.0013 22.351 21.0923 22.3887C21.1834 22.4264 21.2809 22.4458 21.3795 22.4458C21.478 22.4458 21.5756 22.4264 21.6667 22.3887C21.7577 22.351 21.8404 22.2957 21.9101 22.226C21.9798 22.1563 22.0351 22.0736 22.0728 21.9826C22.1105 21.8915 22.1299 21.7939 22.1299 21.6954C22.1299 21.5968 22.1105 21.4993 22.0728 21.4082C22.0351 21.3172 21.9798 21.2344 21.9101 21.1648ZM4.12949 11.1954C4.12949 9.86036 4.52537 8.55531 5.26707 7.44528C6.00877 6.33525 7.06297 5.47009 8.29637 4.95919C9.52977 4.4483 10.887 4.31463 12.1963 4.57508C13.5057 4.83553 14.7085 5.47841 15.6525 6.42241C16.5965 7.36642 17.2393 8.56915 17.4998 9.87852C17.7602 11.1879 17.6266 12.5451 17.1157 13.7785C16.6048 15.0119 15.7396 16.0661 14.6296 16.8078C13.5196 17.5495 12.2145 17.9454 10.8795 17.9454C9.08988 17.9434 7.37415 17.2316 6.10871 15.9662C4.84327 14.7007 4.13147 12.985 4.12949 11.1954Z" fill="#0A2758"/>
</svg>
