<svg width="21" height="21" viewBox="0 0 21 21" fill="none" xmlns="http://www.w3.org/2000/svg">
<path d="M19.9101 19.1648L15.2161 14.4716C16.5766 12.8382 17.255 10.7432 17.1102 8.62232C16.9654 6.50145 16.0085 4.51806 14.4386 3.08473C12.8687 1.6514 10.8067 0.878495 8.6814 0.926794C6.55615 0.975094 4.53133 1.84088 3.02816 3.34405C1.52499 4.84722 0.659199 6.87204 0.610899 8.99729C0.562599 11.1225 1.33551 13.1846 2.76884 14.7545C4.20216 16.3244 6.18556 17.2813 8.30643 17.4261C10.4273 17.5709 12.5223 16.8925 14.1557 15.5319L18.8489 20.226C18.9185 20.2957 19.0013 20.351 19.0923 20.3887C19.1834 20.4264 19.2809 20.4458 19.3795 20.4458C19.478 20.4458 19.5756 20.4264 19.6667 20.3887C19.7577 20.351 19.8404 20.2957 19.9101 20.226C19.9798 20.1563 20.0351 20.0736 20.0728 19.9826C20.1105 19.8915 20.1299 19.7939 20.1299 19.6954C20.1299 19.5968 20.1105 19.4993 20.0728 19.4082C20.0351 19.3172 19.9798 19.2344 19.9101 19.1648ZM2.12949 9.19538C2.12949 7.86036 2.52537 6.55531 3.26707 5.44528C4.00877 4.33525 5.06297 3.47009 6.29637 2.95919C7.52977 2.4483 8.88697 2.31463 10.1963 2.57508C11.5057 2.83553 12.7085 3.47841 13.6525 4.42241C14.5965 5.36642 15.2393 6.56915 15.4998 7.87852C15.7602 9.18789 15.6266 10.5451 15.1157 11.7785C14.6048 13.0119 13.7396 14.0661 12.6296 14.8078C11.5196 15.5495 10.2145 15.9454 8.87949 15.9454C7.08988 15.9434 5.37415 15.2316 4.10871 13.9662C2.84327 12.7007 2.13147 10.985 2.12949 9.19538Z" fill="#3F3F3F"/>
</svg>
